<mxfile host="app.diagrams.net" modified="2023-08-25T04:12:53.238Z" agent="Mozilla/5.0 (Windows NT 10.0; Win64; x64) AppleWebKit/537.36 (KHTML, like Gecko) Chrome/115.0.0.0 Safari/537.36 Edg/115.0.1901.203" etag="cE19K7ZMxTzU49RxiJa3" version="21.3.6" type="github">
  <diagram name="第 1 页" id="0sPfJmM-CKxDsM3ebURr">
    <mxGraphModel dx="1386" dy="756" grid="1" gridSize="10" guides="1" tooltips="1" connect="1" arrows="1" fold="1" page="1" pageScale="1" pageWidth="827" pageHeight="1169" math="0" shadow="0">
      <root>
        <mxCell id="0" />
        <mxCell id="1" parent="0" />
        <mxCell id="FWA_HTjsvY4LHfUCcA5J-3" style="edgeStyle=orthogonalEdgeStyle;rounded=0;orthogonalLoop=1;jettySize=auto;html=1;exitX=1;exitY=0.5;exitDx=0;exitDy=0;exitPerimeter=0;entryX=0;entryY=0.75;entryDx=0;entryDy=0;" edge="1" parent="1" source="FWA_HTjsvY4LHfUCcA5J-1" target="FWA_HTjsvY4LHfUCcA5J-2">
          <mxGeometry relative="1" as="geometry" />
        </mxCell>
        <mxCell id="FWA_HTjsvY4LHfUCcA5J-1" value="" style="shape=mxgraph.cisco.servers.fileserver;sketch=0;html=1;pointerEvents=1;dashed=0;fillColor=#036897;strokeColor=#ffffff;strokeWidth=2;verticalLabelPosition=bottom;verticalAlign=top;align=center;outlineConnect=0;" vertex="1" parent="1">
          <mxGeometry x="120" y="230" width="43" height="62" as="geometry" />
        </mxCell>
        <mxCell id="FWA_HTjsvY4LHfUCcA5J-2" value="" style="rounded=1;whiteSpace=wrap;html=1;" vertex="1" parent="1">
          <mxGeometry x="210" y="82" width="270" height="210" as="geometry" />
        </mxCell>
        <mxCell id="FWA_HTjsvY4LHfUCcA5J-4" value="智能网卡&lt;br&gt;流量监控与特征提取模块" style="rounded=0;whiteSpace=wrap;html=1;" vertex="1" parent="1">
          <mxGeometry x="240" y="240" width="220" height="40" as="geometry" />
        </mxCell>
      </root>
    </mxGraphModel>
  </diagram>
</mxfile>
